<?xml version="1.0" standalone="no"?>
<!DOCTYPE svg PUBLIC "-//W3C//DTD SVG 20010904//EN"
 "http://www.w3.org/TR/2001/REC-SVG-20010904/DTD/svg10.dtd">
<svg version="1.0" xmlns="http://www.w3.org/2000/svg"
 width="512.000000pt" height="512.000000pt" viewBox="0 0 512.000000 512.000000"
 preserveAspectRatio="xMidYMid meet">

<g transform="translate(0.000000,512.000000) scale(0.100000,-0.100000)"
fill="#FFFFFF" stroke="none">
<path d="M878 4830 c-293 -72 -518 -299 -588 -593 -19 -80 -20 -124 -20 -1677
0 -1553 1 -1597 20 -1677 71 -297 297 -522 594 -593 78 -19 130 -20 1676 -20
1553 0 1597 1 1677 20 297 71 522 297 593 594 19 78 20 130 20 1676 0 1553 -1
1597 -20 1677 -71 297 -296 522 -593 593 -74 18 -118 20 -479 20 l-398 0 0
-727 c0 -465 -4 -741 -10 -765 -18 -63 -70 -129 -130 -162 -47 -27 -65 -31
-125 -31 -49 0 -82 6 -110 20 -22 11 -125 90 -230 177 -104 87 -192 158 -195
158 -3 0 -95 -74 -205 -165 -167 -139 -208 -168 -254 -181 -140 -41 -292 43
-331 184 -6 24 -10 300 -10 765 l0 727 -402 -1 c-360 0 -411 -2 -480 -19z
m1442 -3202 c48 -33 72 -70 77 -120 7 -58 -23 -118 -74 -149 -38 -24 -38 -24
-435 -27 -256 -2 -412 1 -437 8 -52 14 -107 75 -116 129 -9 53 25 126 74 158
34 23 35 23 456 23 421 0 422 0 455 -22z"/>
<path d="M2080 4200 c0 -357 2 -650 5 -650 3 0 76 59 163 132 176 147 230 178
312 178 82 0 136 -31 312 -178 87 -73 160 -132 163 -132 3 0 5 293 5 650 l0
650 -480 0 -480 0 0 -650z"/>
</g>
</svg>
