<?xml version="1.0" standalone="no"?>
<!DOCTYPE svg PUBLIC "-//W3C//DTD SVG 20010904//EN"
 "http://www.w3.org/TR/2001/REC-SVG-20010904/DTD/svg10.dtd">
<svg version="1.0" xmlns="http://www.w3.org/2000/svg"
 width="512.000000pt" height="512.000000pt" viewBox="0 0 512.000000 512.000000"
 preserveAspectRatio="xMidYMid meet">

<g transform="translate(0.000000,512.000000) scale(0.100000,-0.100000)"
fill="#FFFFFF" stroke="none">
<path d="M1775 4776 c-54 -25 -100 -71 -122 -123 -10 -24 -13 -93 -13 -270 0
-209 3 -243 19 -278 23 -51 89 -111 138 -125 27 -8 259 -10 784 -8 l746 3 48
30 c33 21 57 47 79 85 l31 55 0 230 c0 253 -5 281 -58 342 -18 20 -54 47 -82
59 l-50 24 -735 0 -735 0 -50 -24z"/>
<path d="M1058 4364 c-185 -44 -342 -191 -406 -378 l-27 -81 0 -1550 c0 -1477
1 -1553 18 -1610 60 -193 202 -341 382 -398 l70 -22 1465 0 1465 0 70 22 c180
57 322 205 382 398 17 57 18 133 18 1600 0 1689 4 1587 -61 1721 -63 129 -171
226 -311 281 -61 23 -85 27 -230 31 l-163 4 0 -83 c-1 -206 -42 -328 -143
-428 -68 -67 -114 -96 -196 -121 -61 -19 -93 -20 -831 -20 -726 0 -772 1 -829
19 -147 46 -272 172 -315 320 -11 37 -16 95 -16 183 l0 128 -142 -1 c-85 0
-166 -6 -200 -15z m2179 -1274 c86 -52 86 -188 0 -240 -31 -19 -56 -20 -845
-20 -893 0 -847 -3 -892 61 -16 21 -22 45 -22 80 0 57 19 91 65 119 31 19 57
20 847 20 791 0 816 -1 847 -20z m-851 -816 c71 -52 88 -128 46 -197 -42 -66
-46 -67 -467 -67 -330 0 -381 2 -412 16 -112 54 -97 227 23 264 16 5 199 8
406 7 363 -2 378 -3 404 -23z"/>
</g>
</svg>
