<?xml version="1.0" standalone="no"?>
<!DOCTYPE svg PUBLIC "-//W3C//DTD SVG 20010904//EN"
 "http://www.w3.org/TR/2001/REC-SVG-20010904/DTD/svg10.dtd">
<svg version="1.0" xmlns="http://www.w3.org/2000/svg"
 width="512.000000pt" height="512.000000pt" viewBox="0 0 512.000000 512.000000"
 preserveAspectRatio="xMidYMid meet">

<g transform="translate(0.000000,512.000000) scale(0.100000,-0.100000)"
fill="#FFFFFF" stroke="none">
<path d="M1638 5099 c-23 -12 -46 -35 -58 -59 -19 -37 -20 -58 -20 -380 l0
-340 1000 0 1000 0 0 340 c0 322 -1 343 -20 380 -13 26 -34 47 -60 60 -38 20
-57 20 -922 20 -859 -1 -884 -1 -920 -21z"/>
<path d="M687 4699 c-25 -13 -44 -34 -57 -62 -11 -23 -148 -591 -305 -1262
-157 -671 -288 -1228 -291 -1237 -5 -17 14 -18 310 -18 l316 0 0 418 c0 460 2
481 60 561 40 55 110 98 182 113 l58 12 0 416 c0 458 2 479 60 559 40 55 110
98 182 113 l58 12 0 198 0 198 -267 0 c-248 -1 -271 -2 -306 -21z"/>
<path d="M3860 4522 l0 -198 58 -12 c72 -15 142 -58 182 -113 58 -80 60 -101
60 -559 l0 -416 58 -12 c72 -15 142 -58 182 -113 58 -80 60 -101 60 -561 l0
-418 316 0 c296 0 315 1 310 18 -3 9 -134 566 -291 1237 -157 671 -294 1239
-305 1262 -13 30 -31 48 -59 63 -37 19 -58 20 -306 20 l-265 0 0 -198z"/>
<path d="M1260 3620 l0 -400 1300 0 1300 0 0 400 0 400 -1300 0 -1300 0 0
-400z"/>
<path d="M960 2520 l0 -399 338 -3 c328 -3 338 -4 379 -26 61 -32 111 -79 135
-126 12 -23 51 -131 88 -241 l67 -200 593 0 593 0 67 200 c37 110 76 218 88
241 24 47 74 94 135 126 41 22 51 23 380 26 l337 3 0 399 0 400 -1600 0 -1600
0 0 -400z"/>
<path d="M0 970 c0 -833 0 -852 20 -890 13 -26 34 -47 60 -60 39 -20 53 -20
2480 -20 2427 0 2441 0 2480 20 26 13 47 34 60 60 20 38 20 57 20 890 l0 850
-777 -2 -776 -3 -82 -245 c-45 -135 -89 -260 -99 -277 -9 -19 -34 -42 -56 -53
-38 -19 -58 -20 -771 -20 l-732 0 -42 24 c-51 30 -54 37 -154 336 l-78 235
-776 3 -777 2 0 -850z m3330 -220 c45 -23 80 -80 80 -130 0 -50 -35 -107 -80
-130 -38 -20 -57 -20 -771 -20 l-731 0 -40 22 c-101 57 -102 194 -2 254 l39
24 733 0 c715 0 734 0 772 -20z"/>
</g>
</svg>
