<?xml version="1.0" standalone="no"?>
<!DOCTYPE svg PUBLIC "-//W3C//DTD SVG 20010904//EN"
 "http://www.w3.org/TR/2001/REC-SVG-20010904/DTD/svg10.dtd">
<svg version="1.0" xmlns="http://www.w3.org/2000/svg"
 width="512.000000pt" height="512.000000pt" viewBox="0 0 512.000000 512.000000"
 preserveAspectRatio="xMidYMid meet">

<g transform="translate(0.000000,512.000000) scale(0.100000,-0.100000)"
fill="#FFFFFF" stroke="none">
<path d="M980 4634 c-203 -43 -379 -207 -442 -409 -29 -91 -30 -242 -4 -330
36 -121 118 -244 208 -312 l27 -20 -44 -729 -44 -729 -74 -292 -75 -293 -255
-340 c-272 -364 -285 -387 -274 -480 23 -192 232 -291 396 -186 30 19 543 686
592 770 9 17 29 78 44 136 14 58 28 111 30 118 3 8 49 -37 109 -106 l105 -119
3 -329 c3 -315 4 -331 25 -370 12 -22 36 -54 54 -72 117 -115 312 -87 397 57
l27 46 3 408 3 408 -25 52 c-16 34 -117 158 -296 361 l-271 309 6 81 c3 44 8
110 11 145 l6 64 86 -86 c134 -131 95 -122 527 -122 360 0 371 1 410 22 47 25
96 75 119 120 59 118 5 277 -115 337 l-53 26 364 0 364 0 -52 -26 c-122 -60
-176 -218 -116 -337 23 -45 72 -95 119 -120 39 -21 50 -22 410 -22 432 0 393
-9 527 122 l86 86 6 -64 c3 -35 8 -101 11 -145 l6 -81 -271 -309 c-169 -192
-281 -328 -296 -359 l-24 -50 0 -390 c0 -238 4 -405 10 -427 16 -56 69 -119
125 -147 62 -33 169 -36 226 -8 47 24 95 71 122 121 21 39 22 55 25 370 l3
329 105 119 c60 69 106 114 109 106 2 -7 16 -60 30 -118 15 -58 35 -119 44
-136 49 -84 562 -751 592 -770 162 -103 370 -8 395 180 14 97 2 118 -273 485
l-255 341 -75 293 -74 292 -44 729 -44 729 27 20 c101 77 190 221 218 357 52
249 -79 523 -306 639 -106 54 -158 66 -285 66 -88 0 -123 -5 -176 -23 -247
-85 -409 -304 -412 -557 0 -49 5 -115 12 -145 43 -182 189 -352 358 -419 57
-22 58 -23 67 -205 l8 -139 -194 -194 -193 -193 -157 0 -158 0 -2 575 -3 574
-23 23 c-20 20 -34 23 -127 26 l-105 4 0 -232 0 -231 -25 -24 c-42 -43 -76
-34 -203 50 l-112 75 -112 -75 c-127 -84 -161 -93 -203 -50 l-25 24 0 231 0
232 -105 -4 c-93 -3 -107 -6 -127 -26 l-23 -23 -3 -574 -2 -575 -158 0 -157 0
-194 194 -193 194 6 123 c10 183 13 198 44 210 73 27 142 70 201 124 130 121
193 263 192 435 -1 172 -55 305 -176 426 -143 144 -343 202 -545 158z"/>
<path d="M2390 3835 l0 -135 76 50 c42 28 84 50 94 50 10 0 52 -22 94 -50 l76
-50 0 135 0 135 -170 0 -170 0 0 -135z"/>
</g>
</svg>
